REM DIRINDEX 1\2,1\4,1\5,1\6,1\7,1\3\8,1\3\9,1\3\10
REM DIRNAME cjc113,folder01,folder02,folder03,folder04,folder05,folder06,folder07,folder08,folder09
TITLE ""
FILE "DB4500_5th_3B_16.mp3" MP3
  TRACK 01 AUDIO
    TITLE "0:"
    INDEX 01 00:00:00
  TRACK 02 AUDIO
    TITLE "8:cjc113_2380"
    INDEX 01 00:00:01
  TRACK 03 AUDIO
    TITLE "0:"
    INDEX 01 00:01:17
  TRACK 04 AUDIO
    TITLE "9:cjc113_2381"
    INDEX 01 00:01:38
  TRACK 05 AUDIO
    TITLE "0:"
    INDEX 01 00:03:23
  TRACK 06 AUDIO
    TITLE "10:cjc113_2382"
    INDEX 01 00:03:41
  TRACK 07 AUDIO
    TITLE "0:"
    INDEX 01 00:07:47
  TRACK 08 AUDIO
    TITLE "8:cjc113_2383"
    INDEX 01 00:08:23
  TRACK 09 AUDIO
    TITLE "0:"
    INDEX 01 00:09:45
  TRACK 10 AUDIO
    TITLE "9:cjc113_2384"
    INDEX 01 00:09:67
  TRACK 11 AUDIO
    TITLE "0:"
    INDEX 01 00:11:13
  TRACK 12 AUDIO
    TITLE "10:cjc113_2385"
    INDEX 01 00:11:39
  TRACK 13 AUDIO
    TITLE "0:"
    INDEX 01 00:14:25
  TRACK 14 AUDIO
    TITLE "8:cjc113_2386"
    INDEX 01 00:14:72
  TRACK 15 AUDIO
    TITLE "0:"
    INDEX 01 00:16:18
  TRACK 16 AUDIO
    TITLE "9:cjc113_2387"
    INDEX 01 00:16:40
  TRACK 17 AUDIO
    TITLE "0:"
    INDEX 01 00:18:15
  TRACK 18 AUDIO
    TITLE "10:cjc113_2388"
    INDEX 01 00:18:39
  TRACK 19 AUDIO
    TITLE "0:"
    INDEX 01 00:21:35
  TRACK 20 AUDIO
    TITLE "8:cjc113_2389"
    INDEX 01 00:22:11
  TRACK 21 AUDIO
    TITLE "0:"
    INDEX 01 00:23:24
  TRACK 22 AUDIO
    TITLE "9:cjc113_2390"
    INDEX 01 00:23:46
  TRACK 23 AUDIO
    TITLE "0:"
    INDEX 01 00:25:15
  TRACK 24 AUDIO
    TITLE "10:cjc113_2391"
    INDEX 01 00:25:39
  TRACK 25 AUDIO
    TITLE "0:"
    INDEX 01 00:28:21
  TRACK 26 AUDIO
    TITLE "8:cjc113_2392"
    INDEX 01 00:28:68
  TRACK 27 AUDIO
    TITLE "0:"
    INDEX 01 00:30:01
  TRACK 28 AUDIO
    TITLE "9:cjc113_2393"
    INDEX 01 00:30:26
  TRACK 29 AUDIO
    TITLE "0:"
    INDEX 01 00:31:37
  TRACK 30 AUDIO
    TITLE "10:cjc113_2394"
    INDEX 01 00:31:61
  TRACK 31 AUDIO
    TITLE "0:"
    INDEX 01 00:34:00
  TRACK 32 AUDIO
    TITLE "8:cjc113_2395"
    INDEX 01 00:34:47
  TRACK 33 AUDIO
    TITLE "0:"
    INDEX 01 00:35:74
  TRACK 34 AUDIO
    TITLE "9:cjc113_2396"
    INDEX 01 00:36:21
  TRACK 35 AUDIO
    TITLE "0:"
    INDEX 01 00:37:50
  TRACK 36 AUDIO
    TITLE "10:cjc113_2397"
    INDEX 01 00:37:73
  TRACK 37 AUDIO
    TITLE "0:"
    INDEX 01 00:42:10
  TRACK 38 AUDIO
    TITLE "8:cjc113_2398"
    INDEX 01 00:42:61
  TRACK 39 AUDIO
    TITLE "0:"
    INDEX 01 00:44:11
  TRACK 40 AUDIO
    TITLE "9:cjc113_2399"
    INDEX 01 00:44:32
  TRACK 41 AUDIO
    TITLE "0:"
    INDEX 01 00:46:13
  TRACK 42 AUDIO
    TITLE "10:cjc113_2400"
    INDEX 01 00:46:35
  TRACK 43 AUDIO
    TITLE "0:"
    INDEX 01 00:49:47
  TRACK 44 AUDIO
    TITLE "8:cjc113_2401"
    INDEX 01 00:50:15
  TRACK 45 AUDIO
    TITLE "0:"
    INDEX 01 00:51:32
  TRACK 46 AUDIO
    TITLE "9:cjc113_2402"
    INDEX 01 00:51:56
  TRACK 47 AUDIO
    TITLE "0:"
    INDEX 01 00:53:29
  TRACK 48 AUDIO
    TITLE "10:cjc113_2403"
    INDEX 01 00:53:53
  TRACK 49 AUDIO
    TITLE "0:"
    INDEX 01 00:58:34
  TRACK 50 AUDIO
    TITLE "8:cjc113_2404"
    INDEX 01 00:59:20
  TRACK 51 AUDIO
    TITLE "0:"
    INDEX 01 01:00:23
  TRACK 52 AUDIO
    TITLE "9:cjc113_2405"
    INDEX 01 01:00:47
  TRACK 53 AUDIO
    TITLE "0:"
    INDEX 01 01:02:12
  TRACK 54 AUDIO
    TITLE "10:cjc113_2406"
    INDEX 01 01:02:34
  TRACK 55 AUDIO
    TITLE "0:"
    INDEX 01 01:07:08
  TRACK 56 AUDIO
    TITLE "8:cjc113_2407"
    INDEX 01 01:07:55
  TRACK 57 AUDIO
    TITLE "0:"
    INDEX 01 01:09:12
  TRACK 58 AUDIO
    TITLE "9:cjc113_2408"
    INDEX 01 01:09:36
  TRACK 59 AUDIO
    TITLE "0:"
    INDEX 01 01:11:07
  TRACK 60 AUDIO
    TITLE "10:cjc113_2409"
    INDEX 01 01:11:31
  TRACK 61 AUDIO
    TITLE "0:"
    INDEX 01 01:15:03
  TRACK 62 AUDIO
    TITLE "8:cjc113_2410"
    INDEX 01 01:15:64
  TRACK 63 AUDIO
    TITLE "0:"
    INDEX 01 01:17:00
  TRACK 64 AUDIO
    TITLE "9:cjc113_2411"
    INDEX 01 01:17:22
  TRACK 65 AUDIO
    TITLE "0:"
    INDEX 01 01:18:72
  TRACK 66 AUDIO
    TITLE "10:cjc113_2412"
    INDEX 01 01:19:19
  TRACK 67 AUDIO
    TITLE "0:"
    INDEX 01 01:22:64
  TRACK 68 AUDIO
    TITLE "8:cjc113_2413"
    INDEX 01 01:23:38
  TRACK 69 AUDIO
    TITLE "0:"
    INDEX 01 01:24:59
  TRACK 70 AUDIO
    TITLE "9:cjc113_2414"
    INDEX 01 01:25:11
  TRACK 71 AUDIO
    TITLE "0:"
    INDEX 01 01:26:58
  TRACK 72 AUDIO
    TITLE "10:cjc113_2415"
    INDEX 01 01:27:08
  TRACK 73 AUDIO
    TITLE "0:"
    INDEX 01 01:30:07
  TRACK 74 AUDIO
    TITLE "8:cjc113_2416"
    INDEX 01 01:30:56
  TRACK 75 AUDIO
    TITLE "0:"
    INDEX 01 01:31:71
  TRACK 76 AUDIO
    TITLE "9:cjc113_2417"
    INDEX 01 01:32:21
  TRACK 77 AUDIO
    TITLE "0:"
    INDEX 01 01:33:33
  TRACK 78 AUDIO
    TITLE "10:cjc113_2418"
    INDEX 01 01:33:56
  TRACK 79 AUDIO
    TITLE "0:"
    INDEX 01 01:37:13
